<svg xmlns="http://www.w3.org/2000/svg" xmlns:xlink="http://www.w3.org/1999/xlink" width="87" height="45" viewBox="0 0 87 45">
    <defs>
        <path id="p5y3x9ptya" d="M0 0.609L86.673 0.609 86.673 34.571 0 34.571z"/>
        <path id="96cpxdd1wc" d="M0 44.779L86.673 44.779 86.673 0.613 0 0.613z"/>
    </defs>
    <g fill="none" fill-rule="evenodd">
        <g>
            <g>
                <g transform="translate(-1208 -860) translate(0 730) translate(1208 130)">
                    <g transform="translate(0 .004)">
                        <mask id="r4mdwusw5b" fill="#fff">
                            <use xlink:href="#p5y3x9ptya"/>
                        </mask>
                        <path fill="#717C83" d="M33.713 32.706c-.373.047-.682.07-.972.07H17.85l-.116-.004-.14.004c-8.375 0-15.187-6.812-15.187-15.187 0-8.372 6.81-15.184 15.23-15.184h.002l15.1-.001c.29 0 .6.022 1 .073 7.816.753 13.71 7.25 13.71 15.112 0 7.863-5.894 14.361-13.737 15.117M76.746.61H17.21l-.122.003-.107-.003C7.447.61-.277 8.507.008 18.103c.274 9.236 8.094 16.468 17.334 16.468H76.745c5.483 0 9.928-4.445 9.928-9.928V10.536c0-5.482-4.445-9.927-9.927-9.927" mask="url(#r4mdwusw5b)"/>
                    </g>
                    <path fill="#717C83" d="M16.936 21.11c-.564.147-1.194.316-2.205.316-1.981 0-4.272-1.055-4.272-4.015 0-2.726 1.811-4.082 4.261-4.082.757 0 1.492.179 2.205.404l-.158 1.693c-.64-.37-1.259-.55-1.94-.55-1.407 0-2.323 1.077-2.323 2.535 0 1.536 1.033 2.466 2.482 2.466.65 0 1.31-.179 1.854-.402l.096 1.636zM24.338 21.11c-.564.147-1.193.316-2.205.316-1.981 0-4.272-1.055-4.272-4.015 0-2.726 1.812-4.082 4.262-4.082.756 0 1.491.179 2.204.404l-.159 1.693c-.64-.37-1.256-.55-1.939-.55-1.406 0-2.321 1.077-2.321 2.535 0 1.536 1.033 2.466 2.481 2.466.65 0 1.312-.179 1.854-.402l.095 1.636zM34.263 13.33c-1.059 0-1.865.343-2.388.964-.525-.621-1.33-.964-2.39-.964-2.04 0-3.43.963-3.43 3.104v4.856h2.085v-4.507c0-1.033.28-1.906 1.345-1.906s1.347.873 1.347 1.906v4.507h2.086v-4.507c0-1.033.28-1.906 1.345-1.906 1.066 0 1.346.873 1.346 1.906v4.507h2.086v-4.856c0-2.14-1.39-3.104-3.432-3.104"/>
                    <path fill="#717C83" d="M31.334 5.15c-2.583 0-5.113.823-7.208 2.313.458.325.894.682 1.306 1.067 1.753-1.149 3.772-1.754 5.902-1.754 5.965 0 10.818 4.853 10.818 10.817 0 5.966-4.853 10.82-10.818 10.82-3.497 0-6.796-1.705-8.825-4.56-.26-.367-.767-.453-1.132-.193-.367.26-.453.768-.192 1.134 2.333 3.283 6.126 5.243 10.15 5.243 6.86 0 12.442-5.582 12.442-12.444 0-6.861-5.582-12.443-12.443-12.443"/>
                    <path fill="#717C83" d="M16.915 30.038c2.583 0 5.113-.824 7.208-2.313-.457-.326-.893-.682-1.305-1.068-1.753 1.149-3.772 1.755-5.903 1.755-5.965 0-10.818-4.853-10.818-10.818 0-5.966 4.853-10.818 10.818-10.818 3.497 0 6.796 1.705 8.825 4.56.26.365.767.451 1.132.191.368-.26.453-.768.192-1.133-2.332-3.284-6.126-5.243-10.149-5.243-6.86 0-12.444 5.581-12.444 12.443 0 6.86 5.583 12.444 12.444 12.444M7.45 42.134c-.998-.196-1.862-.804-2.254-1.613-.405.81-1.268 1.417-2.26 1.613l-.297-.58c1.208-.203 2.187-1.114 2.187-2.052v-.459h.735v.46c0 .944.979 1.848 2.18 2.05l-.29.581zm.527 1.302v.574h-5.52v-.574h2.382v-1.423h.695v1.423h2.443z"/>
                    <mask id="o10c8qp22d" fill="#fff">
                        <use xlink:href="#96cpxdd1wc"/>
                    </mask>
                    <path fill="#717C83" d="M12.3 44.78h.703v-6.114h-.702v6.113zm-3.299-2.011h1.546v-1.492H9v1.492zm0-3.598v1.553h1.546v-1.553h.695v4.157h-2.93v-4.157h.689zM19.19 41.648h-.951v3.118h-.695v-6.094h.695v2.402h.951v.574zm-3.536-1.208c0 .945.601 2.025 1.526 2.463l-.385.547c-.682-.324-1.201-.998-1.478-1.768-.27.85-.81 1.579-1.511 1.923l-.399-.553c.932-.446 1.553-1.6 1.553-2.612v-.587h-1.33v-.574h3.313v.574h-1.29v.587z" mask="url(#o10c8qp22d)"/>
                    <path fill="#717C83" d="M21.794 43.133c-.891 0-1.39.188-1.39.553 0 .351.499.547 1.39.547.89 0 1.396-.196 1.396-.547 0-.365-.506-.553-1.396-.553zm-2.47-2.504c1.128-.115 1.91-.587 2.004-1.134H19.56v-.56h4.501v.56H22.28c.094.547.877 1.02 2.004 1.134l-.243.547c-1.073-.115-1.91-.554-2.234-1.181-.33.627-1.167 1.066-2.233 1.18l-.25-.546zm2.827 1.41v.567c1.1.068 1.742.446 1.742 1.08 0 .688-.783 1.08-2.1 1.08-1.308 0-2.098-.392-2.098-1.08 0-.634.655-1.019 1.761-1.086v-.56h-2.409v-.554h5.513v.554h-2.409zM28.912 42.134h.695V38.68h-.695v3.455zm-2.611 2.004h2.624v-1.134h-2.624v1.134zm-.682.553h3.988v-2.24H25.62v2.24zm2.335-2.807c-.702-.23-1.221-.695-1.491-1.308-.276.654-.803 1.174-1.532 1.423l-.337-.547c.958-.323 1.504-1.127 1.504-1.956v-.587h.71v.587c0 .803.545 1.551 1.483 1.848l-.337.54zM34.519 43.53c0-.417-.52-.654-1.35-.654-.823 0-1.343.237-1.343.655 0 .425.52.661 1.344.661.829 0 1.349-.236 1.349-.661zm.688 0c0 .75-.803 1.209-2.037 1.209-1.236 0-2.032-.46-2.032-1.208 0-.743.796-1.202 2.032-1.202 1.234 0 2.037.46 2.037 1.202zm-2.153-3.245c-.377.972-1.275 1.653-2.59 2.038l-.277-.553c1.43-.399 2.22-1.148 2.341-2.099h-2.024v-.56h2.767c0 .216-.02.419-.055.607h1.256v-1.046h.695v3.583h-.695v-.702h-1.478v-.566h1.478v-.702h-1.418zM38.85 40.076c.035.128.055.263.055.411 0 .149-.02.284-.061.412h1.16v-.823H38.85zm1.188 3.502c0-.405-.499-.634-1.37-.634-.864 0-1.37.23-1.37.634 0 .419.506.641 1.37.641.871 0 1.37-.222 1.37-.641zm.689 0c0 .75-.79 1.188-2.059 1.188-1.268 0-2.051-.439-2.051-1.188 0-.742.783-1.181 2.051-1.181 1.269 0 2.059.439 2.059 1.18zm-3.402-2.213c.527 0 .919-.351.919-.878 0-.533-.392-.884-.919-.884-.54 0-.93.351-.93.884 0 .527.39.878.93.878zm1.208.095c-.283.31-.715.492-1.208.492-.91 0-1.592-.608-1.592-1.465 0-.863.682-1.471 1.592-1.471.5 0 .925.189 1.208.493h1.472v-.843h.695v3.596h-.695v-.802h-1.472zM43.877 44.584L44.099 44.584 44.099 38.78 43.877 38.78zM50.347 43.625c0-.378-.54-.6-1.437-.6-.904 0-1.458.222-1.458.6 0 .385.554.608 1.458.608.897 0 1.437-.223 1.437-.608zm-.195-2.604c.155-.602.161-1.04.161-1.498h-3.495v-.56h4.183v.512c0 .486 0 .992-.168 1.62l-.681-.074zm.89 2.604c0 .708-.836 1.14-2.132 1.14-1.316 0-2.146-.432-2.146-1.14 0-.702.83-1.134 2.146-1.134 1.296 0 2.132.432 2.132 1.134zm.635-2.165v.56h-5.493v-.56h2.159v-1.12h.702v1.12h2.632zM56.062 40.204v-1.532h.695v3.631h-.695v-1.532h-1.08v-.567h1.08zm.027 3.414c0-.397-.5-.614-1.356-.614-.871 0-1.364.217-1.364.614 0 .399.493.615 1.364.615.856 0 1.356-.216 1.356-.615zm.695 0c0 .73-.784 1.154-2.051 1.154-1.276 0-2.058-.425-2.058-1.154 0-.721.782-1.153 2.058-1.153 1.267 0 2.05.432 2.05 1.153zm-1.795-1.51c-.675-.237-1.161-.716-1.417-1.303-.27.668-.783 1.207-1.505 1.464l-.358-.553c.945-.338 1.491-1.148 1.491-1.984v-.088h-1.288v-.56h3.26v.56h-1.27v.081c0 .762.52 1.518 1.431 1.835l-.344.547zM62.289 38.672v6.1h-.702v-3.13h-1.309v-.574h1.309v-2.396h.702zm-1.984.641c0 1.788-.661 3.32-2.726 4.346l-.371-.54c1.586-.782 2.274-1.856 2.388-3.239h-2.118v-.567h2.827zM67.97 38.672v6.087h-.661v-3.165h-.722v2.867h-.654v-5.667h.654v2.233h.722v-2.355h.661zm-4.339 4.11c.634-.007 1.229-.04 1.924-.156l.06.567c-.817.142-1.491.162-2.24.162h-.412v-2.374h1.606v-1.115h-1.62V39.3h2.289v2.24H63.63v1.243zM72.652 44.772h.695v-6.1h-.695v6.1zm-3.266-4.561c0 .432.378.708.905.708.533 0 .903-.276.903-.708 0-.425-.37-.702-.903-.702-.527 0-.905.277-.905.702zm-.668 0c0-.75.661-1.275 1.573-1.275.91 0 1.572.525 1.572 1.275 0 .755-.662 1.282-1.572 1.282-.912 0-1.573-.527-1.573-1.282zm3.583 2.024c-.533.108-1.093.169-1.632.209v2.14h-.696v-2.099c-.573.02-1.113.027-1.585.027l-.081-.574c1.1 0 2.63-.02 3.947-.216l.047.513zM78.192 42.249v-3.583h.695v4.636h-.695v-.568h-1.195v-.485h1.195zm-3.26-2.274c0 .344.344.56.85.56.5 0 .844-.216.844-.56 0-.345-.344-.56-.844-.56-.506 0-.85.215-.85.56zm4.096 4.11v.566h-4.4v-1.802h.696v1.235h3.704zm-4.757-4.11c0-.648.614-1.073 1.511-1.073.891 0 1.505.425 1.505 1.073 0 .647-.614 1.072-1.505 1.072-.897 0-1.51-.425-1.51-1.072zm1.235 1.997c-.58.027-1.134.034-1.613.034l-.087-.567c1.12-.007 2.617-.02 3.907-.182l.054.499c-.513.088-1.046.148-1.566.175v1.174h-.695v-1.133zM83.683 44.766h.702v-6.1h-.702v6.1zm-2.308-2.787c.487 0 .824-.23.824-.608 0-.37-.337-.6-.824-.6-.492 0-.83.23-.83.6 0 .379.338.608.83.608zm1.836-2.039h-3.684v-.56h1.498v-.7h.694v.7h1.492v.56zm-1.492 3.118c.548-.033 1.1-.067 1.62-.142l.048.507c-1.343.229-2.788.249-3.894.249l-.088-.573c.486 0 1.046 0 1.62-.02v-.594c-.689-.108-1.14-.527-1.14-1.114 0-.681.607-1.133 1.49-1.133.878 0 1.485.452 1.485 1.133 0 .594-.452 1.006-1.14 1.114v.573z" mask="url(#o10c8qp22d)"/>
                    <path fill="#FFF" d="M52.706 15.54c.315 0 .558-.039.728-.115.17-.077.256-.167.256-.273v-.1c0-.106-.085-.197-.256-.273-.17-.076-.413-.114-.728-.114-.314 0-.557.038-.728.114-.17.076-.256.167-.256.273v.1c0 .106.086.196.256.273.171.076.414.114.728.114zm-1.5 3.313v-1.132h2.514v-.329h-2.539v-.402h3.02v1.123h-2.513v.338h2.648v.402h-3.13zm1.5-4.596c.229 0 .433.02.614.057.18.038.334.092.46.162.125.07.222.152.29.249.068.095.102.201.102.317v.12c0 .209-.107.383-.323.523-.215.142-.514.225-.894.252v.308h1.853v.407h-4.204v-.407h1.854v-.308c-.381-.027-.68-.11-.895-.252-.215-.14-.323-.314-.323-.523v-.12c0-.116.035-.222.102-.317.068-.097.165-.18.29-.25.127-.07.28-.123.46-.16.181-.039.386-.058.614-.058zM57.7 14.336h.482v1.606h.492v-1.7h.482v4.582h-.482v-2.455h-.492v2.23H57.7v-4.263zm-1.381 2.932c.092 0 .174-.016.246-.047.071-.031.13-.072.178-.121.05-.05.085-.105.11-.165.024-.059.037-.119.037-.179v-.188c0-.06-.013-.12-.037-.18-.025-.059-.06-.113-.11-.163-.048-.05-.107-.09-.178-.121-.072-.032-.154-.048-.246-.048-.093 0-.175.016-.246.048-.071.03-.13.071-.179.121-.048.05-.084.104-.11.164-.024.06-.037.12-.037.179v.188c0 .06.013.12.037.18.026.059.062.114.11.164s.108.09.18.121c.07.031.152.047.245.047zm0-1.615c.152 0 .29.025.415.073.124.048.231.113.32.195.09.084.158.178.206.284.048.106.072.218.072.338v.238c0 .12-.024.232-.072.338-.048.106-.116.2-.206.284-.089.082-.196.147-.32.195-.125.048-.263.073-.415.073-.152 0-.291-.025-.416-.073-.123-.048-.23-.113-.32-.195-.09-.084-.158-.178-.206-.284-.048-.106-.072-.218-.072-.338v-.238c0-.12.024-.232.072-.338.048-.106.117-.2.206-.284.09-.082.197-.147.32-.195.125-.048.264-.073.416-.073zm1.088-.228H55.14v-.413h.92v-.64h.48v.64h.866v.413zM63.011 18.824h.487v-4.582h-.487v4.582zm-1.813-2.495c.103 0 .2-.016.291-.05.09-.033.17-.076.239-.131.067-.055.12-.119.158-.191.039-.073.058-.15.058-.229v-.17c0-.081-.02-.16-.058-.235-.037-.075-.09-.138-.158-.191-.068-.053-.148-.095-.239-.127-.09-.031-.188-.047-.291-.047-.106 0-.204.016-.293.047-.09.032-.168.074-.236.127-.067.053-.12.116-.159.191-.038.075-.057.154-.057.236v.169c0 .08.02.156.057.229.038.072.092.136.159.19.068.056.147.1.236.132.09.034.187.05.293.05zm0 .428c-.189 0-.358-.028-.507-.084-.149-.057-.277-.132-.382-.224-.107-.093-.188-.2-.244-.319-.056-.119-.084-.243-.084-.372v-.228c0-.13.028-.255.084-.374.056-.119.137-.225.244-.317.105-.093.233-.168.382-.224.15-.056.318-.084.507-.084.19 0 .358.028.508.084.148.056.276.131.382.224.105.092.187.198.243.317.057.12.085.244.085.374v.228c0 .129-.028.253-.085.372-.056.12-.138.226-.243.319-.106.092-.234.167-.382.224-.15.056-.319.084-.508.084zm1.575.994c-.208.019-.422.037-.64.051-.22.016-.45.028-.694.038-.244.01-.503.017-.78.022-.276.005-.577.007-.901.007v-.427c.327 0 .628-.001.9-.005.275-.003.53-.009.769-.017.238-.008.463-.02.675-.032.213-.014.422-.03.627-.05l.044.413zM68.254 17.855c-.18.172-.374.291-.586.357-.213.067-.44.1-.681.1-.215 0-.41-.033-.586-.097-.177-.065-.327-.163-.453-.296-.126-.132-.223-.297-.293-.492-.07-.195-.104-.425-.104-.69v-.542c0-.262.034-.49.104-.686.07-.195.168-.36.296-.492.127-.132.279-.231.454-.298.176-.067.37-.098.582-.098.248 0 .465.029.65.09.186.062.364.16.532.292l-.253.402c-.162-.132-.317-.22-.465-.264-.147-.043-.302-.064-.464-.064-.136 0-.26.023-.376.07-.114.046-.213.117-.298.214-.084.096-.15.218-.195.367-.048.149-.07.326-.07.531v.413c0 .205.022.382.07.531.046.15.11.272.195.368.085.097.184.168.298.215.115.046.24.069.376.069.172 0 .345-.027.516-.08.173-.053.333-.153.483-.297l.268.377zM71.454 17.855c-.179.172-.374.291-.587.357-.212.067-.438.1-.68.1-.216 0-.41-.033-.586-.097-.176-.065-.327-.163-.453-.296-.126-.132-.223-.297-.292-.492-.07-.195-.105-.425-.105-.69v-.542c0-.262.035-.49.105-.686.069-.195.167-.36.295-.492.127-.132.279-.231.454-.298.176-.067.37-.098.582-.098.249 0 .465.029.651.09.185.062.362.16.531.292l-.253.402c-.162-.132-.317-.22-.465-.264-.147-.043-.302-.064-.464-.064-.136 0-.261.023-.375.07-.114.046-.214.117-.298.214-.085.096-.15.218-.197.367-.046.149-.07.326-.07.531v.413c0 .205.024.382.07.531.047.15.112.272.197.368.084.097.184.168.298.215.114.046.239.069.375.069.172 0 .344-.027.517-.08.172-.053.332-.153.482-.297l.268.377zM72.711 15.673c-.017-.036-.031-.071-.044-.106-.014-.035-.027-.07-.04-.108l-.045-.124-.055-.16v3.082h-.467v-3.583h.726l.993 2.346.969-2.346h.72v3.583h-.471v-3.081c-.017.067-.032.123-.048.167l-.04.122c-.01.036-.023.07-.037.104-.012.033-.027.068-.044.104l-.855 1.988h-.417l-.845-1.988zM55.524 23.51h.654v-2.528h.966v7.416h-.966v-4.019h-.654v3.66h-.964v-6.905h.964v2.376zm-1.738-1.827v.87H51.92v3.006h.232c.324 0 .651-.008.981-.024.33-.016.662-.05.997-.103l.103.86c-.324.06-.668.096-1.033.112-.364.016-.713.024-1.048.024h-1.228v-4.745h2.862zM63.499 22.672h.972v.878H63.5v1.818h-1.006v-4.386H63.5v1.69zm-2.249 3.549c-.202 0-.383.021-.543.064-.16.042-.293.097-.402.163-.11.067-.193.14-.25.22-.06.08-.09.159-.09.238v.208c0 .08.03.16.09.239.057.08.14.153.25.219.11.067.243.121.402.164.16.042.34.064.543.064.202 0 .383-.022.542-.064.16-.043.294-.097.403-.164.109-.066.192-.14.25-.219.06-.08.089-.16.089-.24v-.207c0-.08-.03-.158-.088-.239-.059-.08-.142-.152-.251-.22-.11-.065-.243-.12-.403-.162-.16-.043-.34-.064-.542-.064zm0 2.4c-.34 0-.65-.035-.93-.104-.278-.07-.517-.167-.717-.295-.2-.127-.354-.28-.462-.458-.109-.179-.163-.374-.163-.586v-.335c0-.213.054-.408.163-.586.108-.178.263-.331.462-.459.2-.127.439-.226.718-.295.279-.069.589-.104.93-.104.339 0 .649.035.928.104.279.07.518.168.717.295.2.128.354.281.463.459.108.178.163.373.163.586v.335c0 .212-.055.407-.163.586-.109.178-.263.33-.463.458-.199.128-.438.226-.717.295-.28.07-.59.104-.929.104zm-1.444-4.872c-.025.064-.074.136-.143.215-.069.08-.186.192-.35.335-.187.16-.38.32-.579.482-.2.163-.41.329-.634.499l-.597-.742c.233-.17.445-.332.637-.486.191-.154.383-.319.574-.494.165-.15.297-.322.395-.518.098-.198.148-.426.148-.686v-1.069h1.02v1.037c0 .133.007.251.02.355.013.103.04.2.08.29.04.091.094.178.163.26.07.082.157.166.263.25.154.128.334.267.539.415.204.149.407.293.61.431l-.559.702c-.186-.128-.364-.254-.534-.379-.17-.125-.33-.246-.478-.363-.139-.106-.263-.206-.37-.299-.11-.093-.175-.171-.197-.235h-.008zM50.946 8.29c0-.794.229-1.359.685-1.693.292-.207.643-.31 1.052-.31.527 0 .955.152 1.285.458.352.325.53.77.53 1.334 0 .443-.121.826-.36 1.15-.147.203-.39.433-.728.692l-.282.212c-.32.25-.53.42-.629.508-.15.137-.247.257-.288.36h2.3v.946h-3.635c.024-.428.09-.765.197-1.01.184-.41.535-.818 1.052-1.227l.106-.092c.494-.371.807-.635.939-.79.197-.226.296-.487.296-.784 0-.235-.06-.428-.183-.58-.136-.173-.325-.26-.565-.26-.32 0-.539.131-.657.395-.065.151-.1.382-.105.692h-1.01zM56.311 10.747c.108.31.31.466.607.466s.502-.155.614-.466c.114-.292.17-.809.17-1.553 0-.761-.056-1.289-.17-1.58-.112-.306-.317-.46-.614-.46-.296 0-.499.154-.607.46-.098.286-.148.814-.148 1.58 0 .749.05 1.266.148 1.553m-.783-3.762c.296-.456.76-.684 1.39-.684.631 0 1.094.228 1.39.684.302.466.452 1.202.452 2.21 0 .992-.15 1.722-.451 2.187-.297.466-.76.7-1.39.7-.631 0-1.095-.234-1.39-.7-.303-.465-.453-1.195-.453-2.188 0-1.002.15-1.738.452-2.209M58.97 8.29c0-.794.227-1.359.684-1.693.292-.207.642-.31 1.052-.31.526 0 .955.152 1.284.458.353.325.53.77.53 1.334 0 .443-.12.826-.36 1.15-.147.203-.389.433-.728.692l-.282.212c-.32.25-.53.42-.628.508-.15.137-.247.257-.29.36h2.302v.946h-3.635c.023-.428.089-.765.197-1.01.184-.41.534-.818 1.052-1.227l.106-.092c.493-.371.807-.635.939-.79.197-.226.296-.487.296-.784 0-.235-.061-.428-.184-.58-.136-.173-.325-.26-.564-.26-.32 0-.539.131-.657.395-.065.151-.1.382-.105.692h-1.01z" mask="url(#o10c8qp22d)"/>
                    <path fill="#FFF" d="M63.756 10.747c.108.31.31.466.606.466.297 0 .502-.155.614-.466.114-.292.17-.809.17-1.553 0-.761-.056-1.289-.17-1.58-.112-.306-.317-.46-.614-.46-.296 0-.498.154-.606.46-.1.286-.149.814-.149 1.58 0 .749.05 1.266.149 1.553m-.784-3.762c.296-.456.76-.684 1.39-.684.631 0 1.094.228 1.39.684.302.466.452 1.202.452 2.21 0 .992-.15 1.722-.451 2.187-.297.466-.76.7-1.39.7-.631 0-1.095-.234-1.39-.7-.302-.465-.453-1.195-.453-2.188 0-1.002.15-1.738.452-2.209" mask="url(#o10c8qp22d)"/>
                </g>
            </g>
        </g>
    </g>
</svg>
